<svg id="ejeiImc96BC1" xmlns="http://www.w3.org/2000/svg" xmlns:xlink="http://www.w3.org/1999/xlink" viewBox="0 0 300 300" shape-rendering="geometricPrecision" text-rendering="geometricPrecision"><g transform="translate(0 0.000001)"><line x1="-0.767002" y1="-51.389126" x2="0.767002" y2="51.389126" transform="translate(66.1411 140.361)" fill="none" stroke="#333" stroke-width="3"/><line x1="-9.715357" y1="0" x2="9.715357" y2="0" transform="translate(76.6235 191.75)" fill="none" stroke="#333" stroke-width="3"/><line x1="-9.715357" y1="0" x2="9.715357" y2="0" transform="translate(174.91 191.75)" fill="none" stroke="#333" stroke-width="3"/><line x1="0" y1="-40.991297" x2="0" y2="51.389126" transform="matrix(-1 0 0 0.644902 164.144 158.61)" fill="none" stroke="#333" stroke-width="3"/><line x1="0" y1="-40.991297" x2="0" y2="51.389126" transform="matrix(-1 0 0 0.644902 164.144 158.61)" fill="none" stroke="#333" stroke-width="3"/><line x1="-15.038117" y1="0" x2="-3.78876" y2="-7.822021" transform="translate(80.4122 88.9722)" fill="none" stroke="#333" stroke-width="3"/><line x1="-10.615038" y1="-0.002884" x2="10.615038" y2="0.002884" transform="translate(135.241 154.164)" fill="none" stroke="#333" stroke-width="3"/><line x1="-10.615038" y1="-0.002884" x2="10.615038" y2="0.002884" transform="translate(135.241 154.164)" fill="none" stroke="#333" stroke-width="3"/></g><g style="mix-blend-mode:color" transform="matrix(1 0 0 0.992894 11.2494-6.806591)"><line x1="-0.767002" y1="-51.389126" x2="0.767002" y2="51.389126" transform="translate(66.1411 140.361)" fill="none" stroke="#333" stroke-width="3"/><line x1="-0.767002" y1="-51.389126" x2="0.767002" y2="51.389126" transform="translate(66.1411 140.361)" fill="none" stroke="#333" stroke-width="3"/><line x1="-0.767002" y1="-51.389126" x2="0.767002" y2="51.389126" transform="translate(184.625 140.361)" fill="none" stroke="#333" stroke-width="3"/><line x1="-9.715357" y1="0" x2="9.715357" y2="0" transform="translate(76.6235 191.75)" fill="none" stroke="#333" stroke-width="3"/><line x1="-9.715357" y1="0" x2="9.715357" y2="0" transform="translate(174.91 191.75)" fill="none" stroke="#333" stroke-width="3"/><line x1="0" y1="-51.389126" x2="0" y2="51.389126" transform="matrix(-1 0 0 0.712642 86.3388 155.128)" fill="none" stroke="#333" stroke-width="3"/><line x1="0" y1="-51.389126" x2="0" y2="51.389126" transform="matrix(-1 0 0 0.712642 86.3388 155.128)" fill="none" stroke="#333" stroke-width="3"/><line x1="0" y1="-51.389126" x2="0" y2="51.389126" transform="matrix(-1 0 0 0.712642 164.144 155.128)" fill="none" stroke="#333" stroke-width="3"/><line x1="0" y1="-51.389126" x2="0" y2="51.389126" transform="matrix(-1 0 0 0.712642 164.144 155.128)" fill="none" stroke="#333" stroke-width="3"/><line x1="0" y1="-51.389126" x2="0" y2="51.389126" transform="matrix(-1 0 0 0.712642 164.144 155.128)" fill="none" stroke="#333" stroke-width="3"/><line x1="-15.038117" y1="0" x2="15.038117" y2="0" transform="translate(80.4122 88.9722)" fill="none" stroke="#333" stroke-width="3"/><line x1="-15.038117" y1="0" x2="15.038117" y2="0" transform="translate(80.4122 88.9722)" fill="none" stroke="#333" stroke-width="3"/><line x1="-15.038117" y1="0" x2="15.038117" y2="0" transform="translate(168.82 88.9722)" fill="none" stroke="#333" stroke-width="3"/><line x1="-12.486609" y1="-30.513891" x2="12.486608" y2="30.513892" transform="matrix(1.14286 0 0 0.707906 109.721 110.573)" fill="none" stroke="#333" stroke-width="3"/><line x1="-12.486609" y1="-30.513891" x2="12.486608" y2="30.513892" transform="matrix(-1.14286 0 0 0.707906 139.512 110.573)" fill="none" stroke="#333" stroke-width="3"/><line x1="-10.799062" y1="-23.863095" x2="10.799062" y2="23.863096" transform="matrix(1.30972 0 0 0.71968 100.483 135.68)" fill="none" stroke="#333" stroke-width="3"/><line x1="-10.799062" y1="-23.863095" x2="10.799062" y2="23.863096" transform="matrix(-1.30972 0 0 0.71968 150 135.674)" fill="none" stroke="#333" stroke-width="3"/><line x1="-10.799062" y1="-23.863095" x2="10.799062" y2="23.863096" transform="matrix(1.30972 0 0 0.71968 100.483 135.68)" fill="none" stroke="#333" stroke-width="3"/><line x1="-10.799062" y1="-23.863095" x2="10.799062" y2="23.863096" transform="matrix(1.30972 0 0 0.71968 100.483 135.68)" fill="none" stroke="#333" stroke-width="3"/><line x1="-10.799062" y1="-23.863095" x2="10.799062" y2="23.863096" transform="matrix(-1.30972 0 0 0.71968 150 135.674)" fill="none" stroke="#333" stroke-width="3"/><line x1="-10.799062" y1="-23.863095" x2="10.799062" y2="23.863096" transform="matrix(-1.30972 0 0 0.71968 150 135.674)" fill="none" stroke="#333" stroke-width="3"/><line x1="-10.615038" y1="-0.002884" x2="10.615038" y2="0.002884" transform="translate(125.241 152.851)" fill="none" stroke="#333" stroke-width="3"/><line x1="-10.615038" y1="-0.002884" x2="10.615038" y2="0.002884" transform="translate(125.241 152.851)" fill="none" stroke="#333" stroke-width="3"/></g><line x1="5.624679" y1="-4.276183" x2="-5.624679" y2="4.276183" transform="translate(72.5328 187.474)" fill="none" stroke="#333" stroke-width="3"/><line x1="5.624679" y1="-4.276183" x2="-5.624679" y2="4.276183" transform="matrix(.999999 0 0 1 91.6616 187.474)" fill="none" stroke="#333" stroke-width="3"/><line x1="6.00818" y1="-4.276183" x2="-6.008179" y2="4.276183" transform="translate(190.633 187.474)" fill="none" stroke="#333" stroke-width="3"/><line x1="6.00818" y1="-4.276183" x2="-6.008179" y2="4.276183" transform="translate(171.203 187.474)" fill="none" stroke="#333" stroke-width="3"/><line x1="-11.84192" y1="-15.060723" x2="14.862958" y2="15.054955" transform="translate(109.128 139.106)" fill="none" stroke="#333" stroke-width="3"/><line x1="-11.84192" y1="-15.060723" x2="14.862958" y2="15.054955" transform="translate(109.128 139.106)" fill="none" stroke="#333" stroke-width="3"/><line x1="39.256295" y1="-29.319839" x2="20.968149" y2="-7.327407" transform="translate(124.887 161.494)" fill="none" stroke="#333" stroke-width="3"/><line x1="39.256295" y1="-29.319839" x2="20.968149" y2="-7.327407" transform="translate(124.887 161.494)" fill="none" stroke="#333" stroke-width="3"/><rect width="11.846775" height="102.047461" rx="0" ry="0" transform="matrix(1.361552 0 0 0.923349 79.8079 85.061922)" fill="#ffa500" stroke-width="0"/><rect width="11.402105" height="95.46916" rx="0" ry="0" transform="matrix(0 2.259232-.304182 0 107.197543 82.869634)" fill="#ffa500" stroke-width="0"/><rect width="11.402105" height="95.46916" rx="0" ry="0" transform="matrix(0 2.259232-.304182 0 193.184 82.869634)" fill="#ffa500" stroke-width="0"/><rect width="11.846775" height="102.047461" rx="0" ry="0" transform="matrix(1.361552 0 0 0.923349 178.0944 85.061922)" fill="#ffa500" stroke-width="0"/><line x1="-8.065" y1="0" x2="8.065" y2="0" transform="translate(87.8729 180.29)" fill="none" stroke="#ffa500" stroke-width="3"/><line x1="-8.065" y1="0" x2="7.242466" y2="0" transform="matrix(1.219013 0 0 1 187.042517 180.29)" fill="none" stroke="#ffa500" stroke-width="3"/><line x1="-8.065" y1="0" x2="7.242466" y2="0" transform="matrix(1.219013 0 0 1 185.22474 83.87)" fill="none" stroke="#ffa500" stroke-width="3"/><line x1="-8.065" y1="0" x2="7.242466" y2="0" transform="matrix(1.219013 0 0 1 89.63924 83.87)" fill="none" stroke="#ffa500" stroke-width="3"/><line x1="-8.065" y1="0" x2="7.242466" y2="0" transform="matrix(0-1.758922 1 0 97.286273 95.444295)" fill="none" stroke="#ffa500" stroke-width="3"/><line x1="1.7957" y1="23.556355" x2="-1.7957" y2="-23.556355" transform="translate(192.4287 155.730988)" fill="none" stroke="#ffa500" stroke-width="3"/><line x1="1.7957" y1="23.556355" x2="-1.7957" y2="-23.556355" transform="matrix(-1 0 0-1.328235 81.6036 116.350306)" fill="none" stroke="#ffa500" stroke-width="3"/><line x1="-15" y1="0" x2="15.940334" y2="0" transform="matrix(0 3.187102-1 0 178.0944 130.676163)" fill="none" stroke="#ffa500" stroke-width="3"/><line x1="-0.82521" y1="-36.430677" x2="0.825211" y2="36.430678" transform="translate(79.8079 119.300311)" fill="none" stroke="#ffa500" stroke-width="3"/><polygon points="0,-30 25.980762,15 -25.980762,15 0,-30" transform="matrix(0-.749986 0.44802 0 103.918219 103.355208)" fill="#ffa500" stroke-width="0"/><polygon points="0,-30 25.980762,15 -25.980762,15 0,-30" transform="matrix(0-.70361-.458684 0 170.8643 101.149958)" fill="#ffa500" stroke-width="0"/><ellipse rx="6.993721" ry="15.679199" transform="matrix(1 0 0 0.885273 113.693675 109.630001)" fill="#ffa500" stroke-width="0"/><ellipse rx="6.993721" ry="15.679199" transform="translate(161.2494 108.36576)" fill="#ffa500" stroke-width="0"/><line x1="-9.587823" y1="-15.644558" x2="9.587822" y2="15.644558" transform="translate(116.28754 100.705748)" fill="none" stroke="#ffa500" stroke-width="3"/><line x1="-7.723077" y1="-11.376405" x2="7.723077" y2="11.376405" transform="translate(133.598439 127.726711)" fill="none" stroke="#ffa500" stroke-width="3"/><line x1="-11.193986" y1="16.28163" x2="11.193986" y2="-16.281629" transform="translate(157.049135 107.763647)" fill="none" stroke="#ffa500" stroke-width="3"/><line x1="-11.854883" y1="18.889242" x2="11.854884" y2="-18.889243" transform="translate(153.1764 103.951174)" fill="none" stroke="#ffa500" stroke-width="3"/><line x1="-11.854883" y1="17.269086" x2="11.854883" y2="-17.269086" transform="translate(153.1764 106.241287)" fill="none" stroke="#ffa500" stroke-width="3"/><line x1="-15" y1="0" x2="15" y2="0" transform="translate(130.855149 124.045277)" fill="none" stroke="#ffa500" stroke-width="3"/><line x1="-9.144425" y1="16.281471" x2="9.144426" y2="-16.28147" transform="translate(154.999575 107.763489)" fill="none" stroke="#ffa500" stroke-width="3"/><line x1="-17.310781" y1="-25.6944" x2="17.310781" y2="25.6944" transform="translate(124.010735 114.666601)" fill="none" stroke="#ffa500" stroke-width="3"/><line x1="-17.310781" y1="-25.6944" x2="17.310781" y2="25.6944" transform="translate(123.990958 116.350306)" fill="none" stroke="#ffa500" stroke-width="3"/><line x1="-17.310781" y1="-25.6944" x2="17.310781" y2="25.6944" transform="translate(120.9704 116.350306)" fill="none" stroke="#ffa500" stroke-width="3"/><line x1="-17.310781" y1="-25.6944" x2="17.310781" y2="25.6944" transform="translate(117.86885 117.475977)" fill="none" stroke="#ffa500" stroke-width="3"/><line x1="-17.310781" y1="-25.6944" x2="17.310781" y2="25.6944" transform="translate(119.179619 116.350306)" fill="none" stroke="#ffa500" stroke-width="3"/><line x1="-17.310781" y1="-25.6944" x2="17.310781" y2="25.6944" transform="translate(115.855149 117.475977)" fill="none" stroke="#ffa500" stroke-width="3"/><line x1="-17.310781" y1="-25.6944" x2="17.310781" y2="25.6944" transform="translate(114.597054 117.475977)" fill="none" stroke="#ffa500" stroke-width="3"/><line x1="-17.310781" y1="-25.6944" x2="17.310781" y2="25.6944" transform="translate(113.248681 117.475977)" fill="none" stroke="#ffa500" stroke-width="3"/><line x1="-17.310781" y1="-25.6944" x2="17.310781" y2="25.6944" transform="translate(110.638519 117.475977)" fill="none" stroke="#ffa500" stroke-width="3"/><line x1="-17.310781" y1="-25.6944" x2="17.310781" y2="25.6944" transform="translate(105.183681 113.408716)" fill="none" stroke="#ffa500" stroke-width="3"/><line x1="-17.310781" y1="-25.6944" x2="17.310781" y2="25.6944" transform="translate(105.183681 113.408716)" fill="none" stroke="#ffa500" stroke-width="3"/><line x1="-17.310781" y1="-25.6944" x2="17.310781" y2="25.6944" transform="matrix(-1 0 0 1 165.194643 113.408716)" fill="none" stroke="#ffa500" stroke-width="3"/><line x1="-17.310781" y1="-25.6944" x2="17.310781" y2="25.6944" transform="matrix(-1 0 0 1 160.783619 114.666601)" fill="none" stroke="#ffa500" stroke-width="3"/><line x1="-17.310781" y1="-25.6944" x2="17.310781" y2="25.6944" transform="matrix(-1 0 0 1 159.900399 114.666601)" fill="none" stroke="#ffa500" stroke-width="3"/><line x1="-17.310781" y1="-25.6944" x2="17.310781" y2="25.6944" transform="matrix(-1 0 0 1 158.632298 113.408716)" fill="none" stroke="#ffa500" stroke-width="3"/><line x1="-17.310781" y1="-25.6944" x2="17.310781" y2="25.6944" transform="matrix(-1 0 0 1 154.255679 113.408716)" fill="none" stroke="#ffa500" stroke-width="3"/><line x1="-17.310781" y1="-25.6944" x2="17.310781" y2="25.6944" transform="matrix(-1 0 0 1 150 113.408716)" fill="none" stroke="#ffa500" stroke-width="3"/><line x1="-17.310781" y1="-25.6944" x2="17.310781" y2="25.6944" transform="matrix(-1 0 0 1 148.16593 113.408716)" fill="none" stroke="#ffa500" stroke-width="3"/><line x1="-17.310781" y1="-25.6944" x2="17.310781" y2="25.6944" transform="matrix(-.604616 0 0 0.420762 148.16593 113.408716)" fill="none" stroke="#ffa500" stroke-width="3"/><line x1="-17.310781" y1="-25.6944" x2="17.310781" y2="25.6944" transform="matrix(-1 0 0 1 158.082619 110.756331)" fill="none" stroke="#ffa500" stroke-width="3"/><line x1="-17.310781" y1="-25.6944" x2="17.310781" y2="25.6944" transform="matrix(-1 0 0 1 154.999576 108.36576)" fill="none" stroke="#ffa500" stroke-width="3"/><line x1="-17.310781" y1="-25.6944" x2="17.310781" y2="25.6944" transform="matrix(-1 0 0 1 145.855149 116.350306)" fill="none" stroke="#ffa500" stroke-width="3"/><line x1="-5.165941" y1="-1.753384" x2="5.165941" y2="1.753384" transform="translate(133.115241 125.973327)" fill="none" stroke="#ffa500" stroke-width="3"/><line x1="-15" y1="0" x2="15" y2="0" transform="translate(135.687396 125.973327)" fill="none" stroke="#ffa500" stroke-width="3"/><line x1="-15" y1="0" x2="15" y2="0" transform="matrix(.748069 0 0-1 136.944898 142.044706)" fill="none" stroke="#ffa500" stroke-width="3"/><line x1="-15" y1="0" x2="15" y2="0" transform="matrix(.748069 0 0-1 136.944898 140.361001)" fill="none" stroke="#ffa500" stroke-width="3"/><line x1="-15" y1="0" x2="15" y2="0" transform="matrix(.748069 0 0-1 136.944898 139.103116)" fill="none" stroke="#ffa500" stroke-width="3"/><line x1="-15" y1="0" x2="15" y2="0" transform="matrix(.748069 0 0-1 92.824635 110.468365)" fill="none" stroke="#ffa500" stroke-width="3"/><line x1="-15" y1="0" x2="15" y2="0" transform="matrix(.748069 0 0-1 179.411965 109.630001)" fill="none" stroke="#ffa500" stroke-width="3"/><line x1="-11.155179" y1="13.410365" x2="11.155179" y2="-13.410365" transform="translate(161.155179 123.040366)" fill="none" stroke="#ffa500" stroke-width="3"/><rect width="6.3917" height="94.225616" rx="0" ry="0" transform="translate(67.802912 87.254017)" fill="#0ff" stroke-width="0"/><line x1="0" y1="-49.067857" x2="0" y2="49.067857" transform="translate(74.194612 134.129788)" fill="none" stroke="#0ff" stroke-width="3"/><line x1="-3.19585" y1="-1.955151" x2="3.19585" y2="1.955151" transform="translate(70.998762 181.242494)" fill="none" stroke="#0ff" stroke-width="3"/><line x1="-3.19585" y1="3.592" x2="3.19585" y2="-3.592" transform="translate(70.998762 183.882)" fill="none" stroke="#0ff" stroke-width="3"/><line x1="1.597925" y1="-4.679045" x2="-1.597925" y2="4.679045" transform="translate(69.400837 178.5186)" fill="none" stroke="#0ff" stroke-width="3"/><line x1="0" y1="-32.860834" x2="0" y2="32.860834" transform="translate(172.310358 150.336811)" fill="none" stroke="#0ff" stroke-width="3"/><line x1="0" y1="-32.860834" x2="0" y2="32.860834" transform="translate(171.203001 151.021166)" fill="none" stroke="#0ff" stroke-width="3"/><line x1="0" y1="-32.860834" x2="0" y2="32.860834" transform="translate(171.203001 152.161146)" fill="none" stroke="#0ff" stroke-width="3"/><line x1="0" y1="-32.860834" x2="0" y2="32.860834" transform="translate(168.243121 154.160955)" fill="none" stroke="#0ff" stroke-width="3"/><line x1="0" y1="-32.860834" x2="0" y2="32.860834" transform="translate(167.310781 154.613166)" fill="none" stroke="#0ff" stroke-width="3"/><line x1="14.41876" y1="-17.342584" x2="-14.41876" y2="17.342585" transform="translate(157.891598 134.818562)" fill="none" stroke="#0ff" stroke-width="3"/><line x1="14.41876" y1="-17.342584" x2="-14.41876" y2="17.342585" transform="matrix(-1 0 0 0.840154 114.125608 136.450731)" fill="none" stroke="#0ff" stroke-width="3"/><line x1="-12.658646" y1="-14.325386" x2="12.658647" y2="14.325387" transform="translate(113.216715 137.83576)" fill="none" stroke="#0ff" stroke-width="3"/><line x1="-10.317626" y1="-11.442512" x2="10.317625" y2="11.442512" transform="matrix(.853864 0 0 1.147145 108.516697 130.602197)" fill="none" stroke="#0ff" stroke-width="3"/><path d="M105.96314,123.27022c.6423,1.71279,5.02486,11.17285,7.79596,10.61863.61754-.12351-.62116-2.82267-.94089-2.82267-.45077,0,2.6404,2.88037-.26883.94089-.94898-.63265-3.52591-2.69605-2.41943-2.41943.90448.22612,2.74758,2.42244,2.28502,1.61296-.55573-.97253-2.0162-3.80837-2.0162-2.68826c0,.71501,1.20972,1.52558,1.20972,2.28502c0,1.47922-3.44138-4.81253-2.55385-3.62915.4935.658,1.99001,2.41071,1.20972,2.15061-1.07278-.35759-2.3875-3.8341-1.88178-2.82267.68391,1.36782,3.50079,4.97933,2.41944,3.89798-1.03923-1.03923-2.2235-4.88901-2.68826-3.49474-.20873.62619,1.34794,2.71606,1.61296,3.0915.4036.57177,1.51387,2.29193,1.34413,1.61296-.168-.67201-1.8679-2.32666-1.61296-3.0915.33076-.99229,1.411,1.54541,2.15061,2.28502c1.08345,1.08345,5.99869,6.92295,3.22591,3.22591" transform="translate(.000001 0)" fill="none" stroke="#0ff" stroke-width="0.6"/><line x1="-8.65539" y1="-11.442511" x2="8.655391" y2="11.442511" transform="translate(109.21346 128.91849)" fill="none" stroke="#0ff" stroke-width="3"/><line x1="-11.547351" y1="0" x2="11.547351" y2="0" transform="translate(135.558087 146.835881)" fill="none" stroke="#0ff" stroke-width="3"/><line x1="-11.547351" y1="0" x2="11.547351" y2="0" transform="translate(135.558087 146.835881)" fill="none" stroke="#0ff" stroke-width="3"/><line x1="-11.547351" y1="0" x2="11.547351" y2="0" transform="translate(135.687396 151.021173)" fill="none" stroke="#0ff" stroke-width="3"/><line x1="-11.547351" y1="0" x2="11.547351" y2="0" transform="translate(136.173313 150)" fill="none" stroke="#0ff" stroke-width="3"/><line x1="-11.547351" y1="0" x2="11.547351" y2="0" transform="translate(136.336511 150)" fill="none" stroke="#0ff" stroke-width="3"/><path d="M128.81336,148.8087c-4.87397-3.04623-.25394-.13441,2.15061-.13441c1.23029,0-4.84707-.49808-3.62915-.67207c2.66203-.38029,5.64039,0,8.33361,0c1.0305,0,4.122,0,3.0915,0-1.43374,0-5.73-.11907-4.30122,0c2.28341.19029,4.56704.13441,6.85507.13441.89609,0,3.48975.40074,2.68826,0-1.38894-.69447-4.35327-.26883-5.77976-.26883-1.0305,0-4.10199-.2021-3.0915,0c1.4505.2901,5.91485.13441,4.43563.13441-1.97139,0-3.94278,0-5.91417,0-1.29933,0-5.15851-.31513-3.89798,0c1.73125.43281,3.8852.26883,5.64535.26883.71687,0,2.85041-.15551,2.15061,0-1.97906.43979-4.16819.59061-6.183.80648-.80682.08645-3.22963.31384-2.41944.26883c5.8022-.32234,13.04852-2.82952,18.549-.53765" transform="translate(0 0.000001)" fill="none" stroke="#0ff" stroke-width="0.6"/><path d="M164.97047,130.93177c-1.51869-1.89836-.29656-.96031,1.07531,0c.23503.16452.87493.33479.67206.53765-.28099.28099-3.03457-.8144-3.0915-.67207-.23363.58406,1.32488,1.67827,1.88178,1.34413c1.84502-1.10701-3.6086-4.01184-.67207-1.0753.60278.60278.46837-3.15663-.13441-2.55385-.68391.68391-.01184,3.50658.67207,2.82268.72635-.72635-1.33159-4.12919-.40324-1.34413.18597.55792.13441-2.4601.13441-1.74737c0,.35843,0,.71687,0,1.0753c0,.79533.40324,0,.40324,0s0,4.07683,0,1.20972c0-.58246.48463,1.42428,0,1.74737-.52955.35303-2.02777-3.85971-1.0753-1.47854.38521.96303,1.06674-2.54528.80648-2.28502-1.02725,1.02725-.36821,1.37916,0,1.74737.57378.57378.26883-3.23088.26883-2.41944c0,.6731-.42318,2.37954-.13441,2.95709.50253,1.00506-.00371-4.45046.26883-3.36033c1.06091,4.24366-1.27989,2.45452-2.28502,2.95709-.48256.24128.61697,1.37168.13441,1.61296-.43161.21581-1.02021-1.34413-.53765-1.34413.58246,0,1.6164.56754,1.74737,0c.05282-.22889.31922-1.75858.13441-1.88178-.44827-.29885-.57077,2.99021-.53765,2.95709.28729-.28729-.84681-2.59418.53765-1.20972.20385.20385-1.79261,1.43331-1.20972,2.0162.53952.53952.86815-2.20516,1.47854-1.74737c1.82568,1.36926-4.81074.39387-.80648-.94089.87627-.29209-.15409,2.27519.67207,2.68826.60111.30056-.67207-2.0162,0-2.0162.68323,0-.12025,2.02328-.40324,1.88178-.60111-.30056,0-1.34413,0-2.0162c0-.22402-.38606.76102-.40324.53765-.0486-.63176-.25839-1.53031.26883-1.88178.75485-.50323-1.34661,3.36529-.94089,2.55385.25345-.5069.9384-2.0137.53765-1.61296-.48256.48256-1.48892,1.88178-.80648,1.88178.98671,0,1.88178-3.27174,1.88178-2.28502c0,.68244-1.3743,2.26033-.80648,1.88178.42505-.28337.63879-.79777.94089-1.20972c1.96328-2.6772-1.62714,2.58221-.26883-.13441" fill="none" stroke="#0ff" stroke-width="0.6"/><path d="M164.97047,130.93177c-1.51869-1.89836-.29656-.96031,1.07531,0c.23503.16452.87493.33479.67206.53765-.28099.28099-3.03457-.8144-3.0915-.67207-.23363.58406,1.32488,1.67827,1.88178,1.34413c1.84502-1.10701-3.6086-4.01184-.67207-1.0753.60278.60278.46837-3.15663-.13441-2.55385-.68391.68391-.01184,3.50658.67207,2.82268.72635-.72635-1.33159-4.12919-.40324-1.34413.18597.55792.13441-2.4601.13441-1.74737c0,.35843,0,.71687,0,1.0753c0,.79533.40324,0,.40324,0s0,4.07683,0,1.20972c0-.58246.48463,1.42428,0,1.74737-.52955.35303-2.02777-3.85971-1.0753-1.47854.38521.96303,1.06674-2.54528.80648-2.28502-1.02725,1.02725-.36821,1.37916,0,1.74737.57378.57378.26883-3.23088.26883-2.41944c0,.6731-.42318,2.37954-.13441,2.95709.50253,1.00506-.00371-4.45046.26883-3.36033c1.06091,4.24366-1.27989,2.45452-2.28502,2.95709-.48256.24128.61697,1.37168.13441,1.61296-.43161.21581-1.02021-1.34413-.53765-1.34413.58246,0,1.6164.56754,1.74737,0c.05282-.22889.31922-1.75858.13441-1.88178-.44827-.29885-.57077,2.99021-.53765,2.95709.28729-.28729-.84681-2.59418.53765-1.20972.20385.20385-1.79261,1.43331-1.20972,2.0162.53952.53952.86815-2.20516,1.47854-1.74737c1.82568,1.36926-4.81074.39387-.80648-.94089.87627-.29209-.15409,2.27519.67207,2.68826.60111.30056-.67207-2.0162,0-2.0162.68323,0-.12025,2.02328-.40324,1.88178-.60111-.30056,0-1.34413,0-2.0162c0-.22402-.38606.76102-.40324.53765-.0486-.63176-.25839-1.53031.26883-1.88178.75485-.50323-1.34661,3.36529-.94089,2.55385.25345-.5069.9384-2.0137.53765-1.61296-.48256.48256-1.48892,1.88178-.80648,1.88178.98671,0,1.88178-3.27174,1.88178-2.28502c0,.68244,8.63172-14.54249,9.19954-14.921039.42505-.283371-9.36723,16.005049-9.06513,15.593099c1.96328-2.6772-1.62714,2.58221-.26883-.13441" fill="none" stroke="#0ff" stroke-width="0.6"/><line x1="-3.225919" y1="2.124716" x2="3.225919" y2="-2.124716" transform="translate(76.581982 187.724673)" fill="none" stroke="#0ff" stroke-width="3"/><line x1="-3.225919" y1="2.124716" x2="3.225919" y2="-2.124716" transform="translate(76.581982 187.724673)" fill="none" stroke="#0ff" stroke-width="3"/><line x1="-3.225919" y1="2.124716" x2="3.225919" y2="-2.124716" transform="translate(86.625219 187.146696)" fill="none" stroke="#0ff" stroke-width="3"/><line x1="-4.0325" y1="0.491118" x2="4.0325" y2="-0.491118" transform="matrix(.61958 0 0 0.790185 83.8404 186.793958)" fill="none" stroke="#0ff" stroke-width="3"/><line x1="-5.077605" y1="-0.402963" x2="5.077605" y2="0.402963" transform="translate(84.060295 186.002921)" fill="none" stroke="#0ff" stroke-width="3"/><line x1="-4.248325" y1="0.443672" x2="4.248325" y2="-0.443673" transform="translate(80.830307 188.82774)" fill="none" stroke="#0ff" stroke-width="3"/><line x1="-4.248325" y1="0.443672" x2="4.248325" y2="-0.443673" transform="translate(180.0694 189.230814)" fill="none" stroke="#0ff" stroke-width="3"/><line x1="-2.386253" y1="2.413704" x2="2.386253" y2="-2.413704" transform="translate(87.464885 187.435685)" fill="none" stroke="#0ff" stroke-width="3"/><line x1="-2.386253" y1="2.413704" x2="2.386253" y2="-2.413704" transform="translate(87.464885 187.435685)" fill="none" stroke="#0ff" stroke-width="3"/><path d="M73.20953,189.84939c-.46505.06643-1.81223.42988-1.39205.2198.42187-.21094.92634-.25123,1.31879-.51286.39455-.26303-1.65509.68762-1.39205.29307.25703-.38555,1.31879.02378,1.31879-.4396c0-.12336-1.97818.21092-1.97818.4396c0,.69506,2.55651-1.04495,1.97818-.65939-1.27955.85303-.30866.51286,1.46532.51286.61055,0-2.35071.66094-1.75838.51286.50649-.12662,1.77207.1739,1.53859-.29306-.27305-.54609-2.37775.27305-1.83165,0c.62168-.31084,2.46967-1.15088,1.97818-.65939-.43464.43463-1.72305.50403-2.34451.65939-.409.10225-1.65452.32205-1.24552.2198.52018-.13004,5.42169-.88215,5.42169-.87919c0,.45624-1.76767.28472-1.31879.36633.85621.15567,2.02727-.2767,2.85738,0c.71373.23791-2.91171.75077-2.19798.51286.89523-.29841,3.45137.1544,2.78411-.51286-.59119-.5912-3.32712.29306-2.49105.29306c1.40421,0,4.5559-.67685,5.78802-1.24552c1.24195-.57321-5.07011.89395-4.1029-.07327c1.4277-1.42771,4.85647-.96082,6.66721-1.68512c1.09993-.43997-4.65585.18741-3.51677.51286c2.18672.62478,6.3096-.43187,8.57213-.58613.85279-.05814,2.65586-.93417,2.05145-1.53859-.18679-.18679-.92356.4396-.6594.4396.50347,0,1.86969-.42692,1.39205-.58613-.71416-.23805-1.07501.36633-1.68512.36633-.48106,0,1.31879-.10507,1.31879-.58613c0-.19973-1.24552.05105-1.24552.2198c0,.47419,1.85704-.38606,1.39205-.29306-.66236.13247-2.58235.13751-1.97818.4396.65713.32856,2.12471.14856,2.12471-.58613c0-.09436-1.5915.17299-1.24552,0c.39561-.1978,1.7144.05127,1.31879-.14653-.16636-.08318-.08828.38135-.2198.51286-.39869.39869-2.15884.37611-1.61185.51286.6322.15805,2.55658-.4396,1.90492-.4396-.22516,0-.74809.06042-.65939-.14653.20294-.47353-1.7015.63528-1.53859.14653.22153-.66459,2.20103-.72505,2.34451-.36633.2176.544-1.40354,1.0784-1.68512,1.17226" transform="translate(.000001 0)" fill="none" stroke="#0ff" stroke-width="0.6"/><path d="M73.20953,189.84939c-.46505.06643-1.81223.42988-1.39205.2198.42187-.21094.92634-.25123,1.31879-.51286.39455-.26303-1.65509.68762-1.39205.29307.25703-.38555,1.31879.02378,1.31879-.4396c0-.12336-1.97818.21092-1.97818.4396c0,.69506,2.55651-1.04495,1.97818-.65939-1.27955.85303-.30866.51286,1.46532.51286.61055,0-2.35071.66094-1.75838.51286.50649-.12662,1.77207.1739,1.53859-.29306-.27305-.54609-2.37775.27305-1.83165,0c.62168-.31084,2.46967-1.15088,1.97818-.65939-.43464.43463-1.72305.50403-2.34451.65939-.409.10225-1.65452.32205-1.24552.2198.52018-.13004,5.42169-.88215,5.42169-.87919c0,.45624-1.76767.28472-1.31879.36633.85621.15567,2.02727-.2767,2.85738,0c.71373.23791-2.91171.75077-2.19798.51286.89523-.29841,3.45137.1544,2.78411-.51286-.59119-.5912-3.32712.29306-2.49105.29306c1.40421,0,4.5559-.67685,5.78802-1.24552c1.24195-.57321-5.07011.89395-4.1029-.07327c1.4277-1.42771,4.85647-.96082,6.66721-1.68512c1.09993-.43997-4.65585.18741-3.51677.51286c2.18672.62478,6.3096-.43187,8.57213-.58613.85279-.05814,2.65586-.93417,2.05145-1.53859-.18679-.18679-.92356.4396-.6594.4396.50347,0,1.86969-.42692,1.39205-.58613-.71416-.23805-1.07501.36633-1.68512.36633-.48106,0,1.31879-.10507,1.31879-.58613c0-.19973-1.24552.05105-1.24552.2198c0,.47419,1.85704-.38606,1.39205-.29306-.66236.13247-2.58235.13751-1.97818.4396.65713.32856,2.12471.14856,2.12471-.58613c0-.09436-1.5915.17299-1.24552,0c.39561-.1978,1.7144.05127,1.31879-.14653-.16636-.08318-.08828.38135-.2198.51286-.39869.39869-2.15884.37611-1.61185.51286.6322.15805,2.55658-.4396,1.90492-.4396-.22516,0-.74809.06042-.65939-.14653.20294-.47353-1.7015.63528-1.53859.14653.22153-.66459,2.20103-.72505,2.34451-.36633.2176.544-1.40354,1.0784-1.68512,1.17226" transform="translate(.000001 0)" fill="none" stroke="#0ff" stroke-width="0.6"/><path d="M73.20953,189.84939c-.46505.06643-1.81223.42988-1.39205.2198.42187-.21094.92634-.25123,1.31879-.51286.39455-.26303-1.65509.68762-1.39205.29307.25703-.38555,1.31879.02378,1.31879-.4396c0-.12336-1.97818.21092-1.97818.4396c0,.69506,2.55651-1.04495,1.97818-.65939-1.27955.85303-.30866.51286,1.46532.51286.61055,0-2.35071.66094-1.75838.51286.50649-.12662,1.77207.1739,1.53859-.29306-.27305-.54609-2.37775.27305-1.83165,0c.62168-.31084,2.46967-1.15088,1.97818-.65939-.43464.43463-1.72305.50403-2.34451.65939-.409.10225-1.65452.32205-1.24552.2198.52018-.13004,5.42169-.88215,5.42169-.87919c0,.45624-1.76767.28472-1.31879.36633.85621.15567,2.02727-.2767,2.85738,0c.71373.23791-2.91171.75077-2.19798.51286.89523-.29841,3.45137.1544,2.78411-.51286-.59119-.5912-3.32712.29306-2.49105.29306c1.40421,0,4.5559-.67685,5.78802-1.24552c1.24195-.57321-5.07011.89395-4.1029-.07327c1.4277-1.42771,4.85647-.96082,6.66721-1.68512c1.09993-.43997-4.65585.18741-3.51677.51286c2.18672.62478,6.3096-.43187,8.57213-.58613.85279-.05814,2.65586-.93417,2.05145-1.53859-.18679-.18679-.92356.4396-.6594.4396.50347,0,1.86969-.42692,1.39205-.58613-.71416-.23805-1.07501.36633-1.68512.36633-.48106,0,1.31879-.10507,1.31879-.58613c0-.19973-1.24552.05105-1.24552.2198c0,.47419,1.85704-.38606,1.39205-.29306-.66236.13247-2.58235.13751-1.97818.4396.65713.32856,2.12471.14856,2.12471-.58613c0-.09436-1.5915.17299-1.24552,0c.39561-.1978,1.7144.05127,1.31879-.14653-.16636-.08318-.08828.38135-.2198.51286-.39869.39869-2.15884.37611-1.61185.51286.6322.15805,2.55658-.4396,1.90492-.4396-.22516,0-.74809.06042-.65939-.14653.20294-.47353-1.7015.63528-1.53859.14653.22153-.66459,2.20103-.72505,2.34451-.36633.2176.544-1.40354,1.0784-1.68512,1.17226" transform="translate(100.078663-.984917)" fill="none" stroke="#0ff" stroke-width="0.6"/><line x1="-1.890499" y1="2.554307" x2="1.890499" y2="-2.554307" transform="translate(186.208224 187.120179)" fill="none" stroke="#0ff" stroke-width="3"/><line x1="-3.54877" y1="1.835728" x2="3.54877" y2="-1.835727" transform="translate(175.11523 187.435684)" fill="none" stroke="#0ff" stroke-width="3"/><line x1="-4.056912" y1="-0.402963" x2="4.056912" y2="0.402963" transform="translate(182.151312 186.002921)" fill="none" stroke="#0ff" stroke-width="3"/><line x1="-9.844649" y1="2.124716" x2="9.844649" y2="-2.124716" transform="translate(180.788352 187.724673)" fill="none" stroke="#0ff" stroke-width="3"/></svg>
